<svg xmlns="http://www.w3.org/2000/svg" viewBox="0 0 960 320" role="img" aria-labelledby="title desc">
  <title id="title">pluginart logo</title>
  <desc id="desc">A playful plug-shaped paint palette connected to protocol nodes beside the pluginart wordmark.</desc>
  <defs>
    <linearGradient id="palette" x1="150" y1="44" x2="380" y2="276" gradientUnits="userSpaceOnUse">
      <stop offset="0" stop-color="#23c4a6"/>
      <stop offset="0.48" stop-color="#4d83ff"/>
      <stop offset="1" stop-color="#ff6b8a"/>
    </linearGradient>
    <linearGradient id="wire" x1="362" y1="156" x2="512" y2="156" gradientUnits="userSpaceOnUse">
      <stop offset="0" stop-color="#293241"/>
      <stop offset="1" stop-color="#4d83ff"/>
    </linearGradient>
    <filter id="softShadow" x="-20%" y="-20%" width="140%" height="150%">
      <feDropShadow dx="0" dy="12" stdDeviation="12" flood-color="#14213d" flood-opacity="0.18"/>
    </filter>
  </defs>

  <rect width="960" height="320" rx="42" fill="#fbfcff"/>

  <g filter="url(#softShadow)">
    <path
      d="M135 160c0-70 56-126 126-126h24c36 0 65 29 65 65v21h26c19 0 34 15 34 34v12c0 19-15 34-34 34h-26v21c0 36-29 65-65 65h-24c-70 0-126-56-126-126Z"
      fill="url(#palette)"/>
    <path
      d="M135 160c0-70 56-126 126-126h24c36 0 65 29 65 65v21h26c19 0 34 15 34 34v12c0 19-15 34-34 34h-26v21c0 36-29 65-65 65h-24c-70 0-126-56-126-126Z"
      fill="none" stroke="#293241" stroke-width="10" stroke-linejoin="round"/>

    <circle cx="230" cy="112" r="22" fill="#fff8d7" stroke="#293241" stroke-width="8"/>
    <circle cx="191" cy="178" r="18" fill="#ffffff" stroke="#293241" stroke-width="8"/>
    <circle cx="272" cy="214" r="20" fill="#e7f8ff" stroke="#293241" stroke-width="8"/>
    <circle cx="285" cy="151" r="34" fill="#fbfcff" stroke="#293241" stroke-width="10"/>

    <path d="M410 156h64" stroke="url(#wire)" stroke-width="14" stroke-linecap="round"/>
    <circle cx="500" cy="156" r="28" fill="#fbfcff" stroke="#293241" stroke-width="10"/>
    <path d="M522 156h44" stroke="#293241" stroke-width="12" stroke-linecap="round"/>
    <path d="M562 126v60" stroke="#293241" stroke-width="12" stroke-linecap="round"/>
    <path d="M586 126v60" stroke="#293241" stroke-width="12" stroke-linecap="round"/>

    <path d="M474 156c0-55 34-92 88-92h18" fill="none" stroke="#ffb703" stroke-width="10" stroke-linecap="round"/>
    <path d="M474 156c0 55 34 92 88 92h18" fill="none" stroke="#23c4a6" stroke-width="10" stroke-linecap="round"/>
    <circle cx="600" cy="64" r="16" fill="#ffb703" stroke="#293241" stroke-width="7"/>
    <circle cx="600" cy="248" r="16" fill="#23c4a6" stroke="#293241" stroke-width="7"/>
  </g>

  <g aria-hidden="true">
    <text x="636" y="151" fill="#293241" font-family="Inter, ui-sans-serif, system-ui, -apple-system, BlinkMacSystemFont, Segoe UI, sans-serif" font-size="64" font-weight="800" letter-spacing="0">plugin</text>
    <text x="636" y="216" fill="#4d83ff" font-family="Inter, ui-sans-serif, system-ui, -apple-system, BlinkMacSystemFont, Segoe UI, sans-serif" font-size="64" font-weight="800" letter-spacing="0">art</text>
    <path d="M638 234h184" stroke="#ff6b8a" stroke-width="8" stroke-linecap="round"/>
  </g>
</svg>
